<svg width="18" height="14" viewBox="0 0 18 14" fill="none" xmlns="http://www.w3.org/2000/svg">
<path d="M17.8275 9.7525C17.6085 9.53275 17.2523 9.53275 17.0325 9.7525L15.3675 11.4175V3.7375C15.3675 2.1865 14.1053 0.924997 12.555 0.924997H8.16754C7.85704 0.924997 7.60504 1.177 7.60504 1.4875C7.60504 1.798 7.85704 2.05 8.16754 2.05H12.555C13.485 2.05 14.2425 2.8075 14.2425 3.7375V11.4175L12.5775 9.7525C12.3578 9.53275 12.0015 9.53275 11.7825 9.7525C11.5635 9.97225 11.562 10.3285 11.7825 10.5475L14.4075 13.1725C14.5163 13.2827 14.6603 13.3375 14.805 13.3375C14.9498 13.3375 15.0923 13.2835 15.2025 13.1725L17.8275 10.5475C18.048 10.3285 18.048 9.97225 17.8275 9.7525ZM9.83254 12.2125H5.44504C4.51504 12.2125 3.75754 11.455 3.75754 10.525V2.845L5.42254 4.51C5.53354 4.62025 5.67754 4.675 5.82154 4.675C5.96554 4.675 6.10954 4.62025 6.21904 4.51C6.43879 4.29025 6.43879 3.934 6.21904 3.715L3.59404 1.09C3.37429 0.869497 3.01804 0.869497 2.79904 1.09L0.174042 3.715C-0.046458 3.934 -0.046458 4.29025 0.174042 4.51C0.394542 4.72975 0.749292 4.72975 0.969042 4.51L2.63404 2.845V10.525C2.63404 12.076 3.89629 13.3375 5.44654 13.3375H9.83404C10.1445 13.3375 10.3965 13.0855 10.3965 12.775C10.3965 12.4645 10.1438 12.2125 9.83404 12.2125H9.83254Z" fill="#606060"/>
</svg>
