<svg width="15" height="16" viewBox="0 0 15 16" fill="none" xmlns="http://www.w3.org/2000/svg">
<path d="M12.9896 0.916656H2.01044C1.1321 0.916656 0.416687 1.63207 0.416687 2.51041V13.4896C0.416687 14.3679 1.1321 15.0833 2.01044 15.0833H12.9896C13.8679 15.0833 14.5834 14.3679 14.5834 13.4896V2.51041C14.5834 1.63207 13.8679 0.916656 12.9896 0.916656ZM2.01044 1.97916H12.9896C13.2821 1.97916 13.5209 2.21786 13.5209 2.51041V9.36424L10.7881 6.63149C10.6889 6.53232 10.5544 6.47566 10.4127 6.47566H10.4106C10.2689 6.47566 10.1322 6.53232 10.0337 6.63432L6.97585 9.73966L5.69165 8.46041C5.59248 8.36124 5.4579 8.30457 5.31623 8.30457C5.17952 8.28332 5.03644 8.36124 4.93727 8.46536L1.47919 11.9964V2.51041C1.47919 2.21786 1.7179 1.97916 2.01044 1.97916ZM1.48344 13.5108L5.32119 9.59091L9.77094 14.0208H2.01044C1.72569 14.0208 1.49548 13.7927 1.48344 13.5108ZM12.9896 14.0208H11.2754L7.72881 10.4884L10.4148 7.76128L13.5209 10.8666V13.4896C13.5209 13.7821 13.2821 14.0208 12.9896 14.0208Z" fill="#4A99E9"/>
</svg>
