<svg width="17" height="16" viewBox="0 0 17 16" fill="none" xmlns="http://www.w3.org/2000/svg">
<path d="M14.5209 0.930847H2.47919C1.60085 0.930847 0.885437 1.64414 0.885437 2.52247V13.5066C0.885437 14.3835 1.60085 15.0975 2.47919 15.0975H14.5209C15.3992 15.0975 16.1146 14.3835 16.1146 13.5066V2.52247C16.1146 1.64414 15.3992 0.930847 14.5209 0.930847ZM15.0521 13.5066C15.0521 13.797 14.8141 14.035 14.5209 14.035H2.47919C2.18594 14.035 1.94794 13.797 1.94794 13.5066V2.52247C1.94794 2.23064 2.18594 1.99335 2.47919 1.99335H14.5209C14.8141 1.99335 15.0521 2.23064 15.0521 2.52247V13.5066Z" fill="#4A99E9"/>
</svg>
