<svg width="16" height="16" viewBox="0 0 16 16" fill="none" xmlns="http://www.w3.org/2000/svg">
<path d="M9.53452 0.681504L6.42352 0.674004H6.42202C3.14152 0.674004 0.572021 3.24425 0.572021 6.5255C0.572021 9.599 2.96152 11.93 6.17077 12.053V14.924C6.17077 15.005 6.20377 15.1385 6.26077 15.2263C6.36727 15.395 6.54877 15.4865 6.73477 15.4865C6.83827 15.4865 6.94252 15.458 7.03627 15.398C7.23427 15.272 11.891 12.293 13.1023 11.2685C14.5288 10.061 15.3823 8.291 15.3845 6.5345V6.52175C15.38 3.2465 12.812 0.681503 9.53452 0.680753V0.681504ZM12.3748 10.4105C11.5243 11.1305 8.72827 12.9643 7.29577 13.8928V11.5025C7.29577 11.192 7.04452 10.94 6.73327 10.94H6.43627C3.69127 10.94 1.69777 9.083 1.69777 6.5255C1.69777 3.875 3.77377 1.799 6.42277 1.799L9.53302 1.8065H9.53452C12.1835 1.8065 14.2595 3.881 14.261 6.5285C14.2588 7.961 13.5545 9.4115 12.3755 10.4105H12.3748Z" fill="#606060"/>
</svg>
