<svg width="16" height="15" viewBox="0 0 16 15" fill="none" xmlns="http://www.w3.org/2000/svg">
<path d="M8.00002 14.2285H7.98952C6.05227 14.1925 0.462524 9.142 0.462524 4.3585C0.462524 2.0605 2.35627 0.0429993 4.51477 0.0429993C6.23227 0.0429993 7.38727 1.228 7.99927 2.0905C8.60977 1.2295 9.76477 0.0429993 11.483 0.0429993C13.643 0.0429993 15.536 2.0605 15.536 4.35925C15.536 9.14125 9.94552 14.1917 8.00827 14.227H8.00002V14.2285ZM4.51552 1.16875C2.95552 1.16875 1.58827 2.65975 1.58827 4.36C1.58827 8.665 6.86377 13.057 8.00077 13.1035C9.13927 13.057 14.4133 8.66575 14.4133 4.36C14.4133 2.65975 13.046 1.16875 11.486 1.16875C9.59002 1.16875 8.53102 3.37075 8.52202 3.3925C8.34952 3.814 7.65502 3.814 7.48177 3.3925C7.47127 3.37 6.41302 1.16875 4.51627 1.16875H4.51552Z" fill="#606060"/>
</svg>
