<svg width="24" height="22" viewBox="0 0 24 22" fill="none" xmlns="http://www.w3.org/2000/svg">
<path d="M22.58 6.35001L12.475 0.897008C12.178 0.737008 11.821 0.737008 11.525 0.897008L1.42502 6.35001C0.939018 6.61401 0.758018 7.22001 1.02002 7.70601C1.20002 8.04101 1.54502 8.23101 1.90002 8.23101C2.06002 8.23101 2.22402 8.19301 2.37502 8.11101L3.10902 7.71501L4.69902 18.965C4.91502 20.179 6.00902 21.027 7.35902 21.027H16.641C17.991 21.027 19.085 20.179 19.303 18.939L20.891 7.71401L21.628 8.11201C22.113 8.37501 22.72 8.19401 22.982 7.70801C23.245 7.22201 23.062 6.61501 22.578 6.35301L22.58 6.35001ZM12 14.435C10.205 14.435 8.75002 12.98 8.75002 11.185C8.75002 9.39001 10.205 7.93501 12 7.93501C13.795 7.93501 15.25 9.39001 15.25 11.185C15.25 12.98 13.795 14.435 12 14.435Z" fill="white"/>
</svg>
